<svg width="83" height="82" viewBox="0 0 83 82" fill="none" xmlns="http://www.w3.org/2000/svg">
<path d="M78.9958 33.1533C79.1201 33.6199 79.2391 34.0864 79.3526 34.553L79.6487 35.969C79.7374 36.4356 79.8027 36.9208 79.8819 37.399C79.9612 37.8772 80.0009 38.3578 80.0615 38.8407C80.2598 40.7781 80.3042 42.7282 80.1944 44.6727C79.9678 48.6041 79.1388 52.4774 77.7365 56.1571C75.612 61.7491 72.2304 66.7775 67.8533 70.8537C64.9322 73.5671 61.6233 75.8299 58.0354 77.5675C56.2409 78.4293 54.3849 79.1568 52.4828 79.744C48.6877 80.9153 44.7359 81.4991 40.7643 81.475C36.8265 81.4479 32.9164 80.8137 29.1718 79.5947C27.3205 78.9919 25.5199 78.243 23.7871 77.3552C22.9242 76.9104 22.0816 76.4361 21.2592 75.9322C20.8487 75.6756 20.4499 75.405 20.0488 75.1414C19.6477 74.8778 19.2629 74.5862 18.8828 74.3039C25.7577 77.7145 33.3088 79.3334 40.713 78.9065C44.4 78.7013 48.0419 77.995 51.5383 76.807C55.0143 75.6126 58.3129 73.9538 61.3446 71.8755C62.8643 70.8452 64.3098 69.7094 65.6705 68.4766C67.0366 67.2474 68.3132 65.9221 69.4904 64.5108C71.8616 61.6802 73.8385 58.5413 75.3671 55.1796C78.4547 48.4262 79.6977 40.8002 78.9958 33.1533Z" fill="#0F0F16"/>
<path d="M5.19861 58.3238C4.60757 57.3686 4.07036 56.381 3.58951 55.3658C3.10911 54.3487 2.68234 53.3036 2.29756 52.2399C1.53772 50.1016 0.961939 47.9024 0.576514 45.666C-0.210538 41.1369 -0.19159 36.5043 0.632483 31.9818C0.849363 30.8458 1.12221 29.719 1.43937 28.6063C1.75653 27.4935 2.13898 26.4064 2.55641 25.3403C3.39146 23.1945 4.37485 21.1093 5.49945 19.1001C5.6347 18.8528 5.78395 18.5939 5.93087 18.3373L6.15008 17.9524L6.39961 17.5791L6.90333 16.8326L7.42105 16.1328L7.68223 15.7782L7.95275 15.4329L8.49845 14.7471C8.88323 14.3062 9.25169 13.849 9.66446 13.4267C11.2481 11.7181 12.9832 10.1565 14.8486 8.76113C16.693 7.40138 18.6105 6.14368 20.5924 4.99365C20.8443 4.84902 21.0868 4.69972 21.348 4.56442L22.1385 4.16318C22.6632 3.88557 23.1926 3.65929 23.7197 3.41202C24.2467 3.16474 24.7901 2.96178 25.3241 2.7355C25.8581 2.50922 26.4108 2.32726 26.9565 2.13597C29.1498 1.39273 31.4032 0.840142 33.6915 0.48435C34.2605 0.381707 34.8365 0.328052 35.4078 0.25107C35.9792 0.174087 36.5575 0.141428 37.1312 0.0901064C37.7049 0.0387847 38.2832 0.0271207 38.8592 0.0154567C39.4353 0.00379272 40.0089 -0.0125369 40.585 0.0154567C42.8822 0.0541434 45.1719 0.288268 47.4295 0.715297C49.6742 1.15112 51.8764 1.78341 54.0105 2.60487C58.2485 4.2187 62.1273 6.65142 65.4258 9.76423C60.0111 6.05304 53.7883 3.68961 47.2758 2.87076C40.7633 2.05191 34.1494 2.80134 27.985 5.05664C27.4859 5.24793 26.9892 5.44622 26.4924 5.64451C25.9957 5.84279 25.5153 6.06908 25.0349 6.30236C24.5545 6.53564 24.0601 6.76892 23.6054 7.0022L22.9058 7.37078C22.6726 7.49442 22.4394 7.64372 22.2062 7.77902C20.3398 8.88128 18.5323 10.0804 16.7912 11.3715C15.9353 12.0201 15.0958 12.6849 14.2959 13.3917C13.496 14.0986 12.7288 14.8334 12.0035 15.6102C11.6304 15.9881 11.2922 16.3964 10.9354 16.7906L10.4294 17.4042L10.1775 17.7121L9.94431 18.0293L9.45925 18.6662L9.01383 19.2961L8.78062 19.611L8.5754 19.9469C8.44015 20.1802 8.30489 20.3925 8.1673 20.6304C5.95653 24.3769 4.1422 28.3287 3.1231 32.5137C1.13478 41.1251 1.8598 50.1411 5.19861 58.3238Z" fill="#0F0F16"/>
<path d="M69.8177 15.4891L72.4449 18.5892C73.042 19.2938 73.9494 19.5619 74.6907 19.2525L78.6642 17.5944L75.3737 20.3718C74.7598 20.8899 74.5833 21.8197 74.9369 22.6731L76.4925 26.4275L73.8653 23.3274C73.2682 22.6228 72.3608 22.3548 71.6195 22.6641L67.646 24.3222L70.9365 21.5449C71.5504 21.0267 71.7268 20.0969 71.3733 19.2435L69.8177 15.4891Z" fill="#0F0F16"/>
<path d="M22.9601 67.0453C19.8053 69.3263 14.0076 73.3554 9.46468 71.6494C1.40716 68.6415 6.19307 60.0714 7.37552 57.8605C11.7338 49.7345 30.1249 39.692 28.4377 53.7519C28.405 54.0324 27.989 54.7522 27.7367 53.8571C26.6383 50.1341 23.9977 49.3232 20.2213 51.1928C12.3647 55.0888 3.87957 68.4359 11.0327 70.6748C18.7654 73.0914 49.313 39.4279 53.0496 37.196C55.6716 35.6278 54.0778 35.5343 53.781 35.56C41.1082 36.1536 32.3403 39.8252 29.5851 41.9286C27.8395 43.2631 28.8607 44.7541 29.0383 44.8873C28.8957 44.8873 26.4116 45.2683 26.0564 43.7889C24.9675 39.2503 36.4602 33.1154 62.1867 34.5294C62.0232 34.7631 60.9248 35.4642 60.7589 35.6979C59.032 35.5296 56.5829 37.3642 54.9027 39.5658C54.5966 39.9631 47.0181 51.6743 46.6933 52.2469C46.6396 52.3403 46.511 52.4923 46.6933 52.5811C46.8289 52.6488 46.9457 52.5694 47.0555 52.4572C48.6976 50.7776 50.3451 49.1019 51.998 47.4301C53.5287 45.89 55.1481 44.4246 56.7255 42.9265C58.5483 41.1947 60.5042 39.6008 62.4251 37.9719C63.8716 36.7426 65.4327 35.6231 66.9773 34.492C68.2206 33.5805 74.1635 28.8527 81.7724 27.6929C81.7724 27.6929 81.2113 28.5348 81.0477 28.8527C75.3954 29.1426 68.004 38.5504 65.7808 41.3656C56.5806 53.016 51.5493 59.2605 47.9879 64.8648C47.8431 64.9022 46.8873 64.0702 46.8873 64.0702C47.3196 60.9923 54.9986 48.0144 65.9257 36.4504C65.6914 36.4524 65.4573 36.468 65.2247 36.4972C58.373 41.8117 52.2691 49.2881 51.2783 50.3001C50.6637 50.9264 46.8382 54.8036 45.5553 56.1428C44.1033 57.6541 42.663 59.174 41.2344 60.7025C41.1503 60.7025 39.9818 60.235 39.9561 60.235C40.4463 58.4892 41.0907 56.7905 41.8817 55.1589C42.2696 54.3199 47.156 45.5908 50.2383 41.8842C51.6054 40.2482 50.3529 40.3838 49.7827 40.9306C49.4415 41.2275 27.295 63.9136 22.9601 67.0453Z" fill="#0F0F16"/>
<path d="M73.5742 7.62263C69.6155 9.02488 66.4631 11.6378 65.4535 12.3155C64.1986 13.1545 62.9321 13.9842 61.7473 14.9097C60.1745 16.1367 58.5761 17.3332 57.0735 18.649C55.7719 19.7919 54.4399 20.902 53.171 22.0822C51.7992 23.3583 50.2031 24.8867 48.8407 26.1698C48.7496 26.2539 48.6561 26.3124 48.5556 26.2469C48.4552 26.1815 48.766 25.3448 48.8127 25.2677C49.0978 24.8143 56.8515 13.9421 58.513 12.9839C57.7391 12.7381 56.9826 12.4407 56.2486 12.0935C56.2276 12.0935 55.2975 12.7292 54.6011 13.1802C50.5443 15.8118 42.1363 25.3097 41.3184 26.1721C36.0534 31.7087 22.0322 41.0571 17.5921 34.6488C17.5431 35.3148 18.2932 39.1874 18.6905 39.8394C23.1305 42.3612 27.3369 39.2528 29.4167 37.8786C35.9599 33.5597 51.194 16.5456 51.8296 15.9847C52.297 15.5687 53.2971 15.6085 52.1497 16.8845C49.5582 19.7615 45.2817 26.7003 44.9335 27.3664C44.1997 28.7686 43.2533 30.0704 42.5826 31.5171C42.0381 32.6856 41.1221 33.0151 40.3509 33.9991C40.2691 34.1042 40.1686 34.2328 40.0635 34.3473C40.8276 34.1813 42.3022 34.0575 43.0874 33.9897C43.5547 33.3377 43.3211 32.702 43.9053 32.12C45.161 30.8736 46.4236 29.6412 47.6933 28.4227C48.7566 27.3991 51.9301 23.9612 52.4395 23.4798C53.2621 22.7039 58.3261 17.8708 63.9089 13.8977C64.1032 14.0379 64.2853 14.1943 64.4534 14.3651C56.3958 22.2645 50.75 30.0026 49.1142 33.5293C49.7638 33.4662 50.4135 33.4171 51.0678 33.3821C55.3559 27.5206 68.4517 10.9623 74.1257 8.57383C74.9501 8.20655 75.8088 7.9216 76.6892 7.72312C76.8341 7.47072 77.2033 7.34452 77.3575 7.09912C75.7544 7.15521 74.2145 7.39827 73.5742 7.62263Z" fill="#EF032E"/>
<path d="M28.1588 27.8519C27.7259 30.2587 33.2175 30.9597 35.1572 26.8471C37.1998 22.515 32.9694 19.4399 28.2079 19.9073C22.4847 20.4447 14.8382 26.7537 15.2758 37.4322C16.0152 55.4805 34.8858 71.6175 34.8858 71.6175H48.0121C48.0121 71.6175 39.184 68.1779 32.3681 62.7779C22.6041 55.0412 17.7272 44.9235 16.9481 38.1893C15.8015 28.3893 21.7594 23.4824 27.1012 23.1132C31.376 22.8164 34.8858 26.2443 33.9334 26.9873C32.7401 27.922 28.5846 25.5152 28.1588 27.8519Z" fill="#EF032E"/>
</svg>
