<svg width="381" height="251" viewBox="0 0 381 251" fill="none" xmlns="http://www.w3.org/2000/svg">
<path d="M265.246 2.02275C249.945 7.44081 237.761 17.5365 233.859 20.1552C229.008 23.397 224.113 26.6027 219.534 30.1786C213.455 34.9194 207.277 39.5429 201.469 44.6268C196.438 49.0425 191.29 53.3318 186.385 57.892C181.084 62.8225 174.915 68.7282 169.649 73.6857C169.297 74.0108 168.935 74.2365 168.547 73.9837C168.159 73.7309 169.36 70.4981 169.54 70.2001C170.642 68.4482 200.611 26.4402 207.033 22.7378C204.042 21.7882 201.118 20.6388 198.281 19.2973C198.2 19.2973 194.605 21.7535 191.913 23.4964C176.233 33.6643 143.735 70.3626 140.574 73.6947C120.225 95.0871 67.7119 131.208 50.5508 106.447C50.3611 109.021 51.5799 123.983 53.1154 126.503C70.2766 136.246 86.5345 124.236 94.5732 118.927C119.863 102.239 178.744 36.4997 181.201 34.3325C183.007 32.7251 186.873 32.8786 182.438 37.8091C172.422 48.9251 155.893 75.7355 154.547 78.3091C151.711 83.7272 148.053 88.757 145.461 94.3466C143.356 98.8617 139.815 100.135 136.835 103.937C136.519 104.343 136.13 104.84 135.724 105.282C138.677 104.641 144.377 104.162 147.412 103.9C149.218 101.381 148.315 98.9249 150.573 96.6764C155.426 91.8603 160.307 87.0984 165.214 82.3907C169.324 78.4355 181.589 65.1523 183.558 63.2921C186.738 60.2941 206.311 41.6198 227.888 26.2686C228.639 26.8104 229.343 27.4145 229.993 28.0746C198.85 58.5964 177.028 88.4951 170.706 102.122C173.217 101.878 175.727 101.688 178.257 101.553C194.831 78.9051 245.447 14.9268 267.377 5.698C270.564 4.27892 273.883 3.17792 277.286 2.41104C277.846 1.43579 279.273 0.948162 279.869 0C273.673 0.216723 267.72 1.15585 265.246 2.02275Z" fill="#EF032E"/>
<path d="M239.578 68.1147L216.483 96.1081H214.062V59.5181H218.579V87.4482C226.28 78.1351 233.979 68.8251 241.674 59.5181H244.095V96.0991H239.578V68.1147Z" fill="#0F0F16"/>
<path d="M280.827 73.4972C279.991 70.6237 278.223 68.1097 275.802 66.3507C273.38 64.5918 270.442 63.6877 267.451 63.7808C259.394 63.7808 253.523 69.7948 253.523 77.7865C253.471 79.6329 253.795 81.4707 254.476 83.188C255.156 84.9053 256.179 86.4664 257.482 87.7764C258.784 89.0863 260.34 90.1178 262.053 90.8082C263.767 91.4985 265.603 91.8333 267.451 91.7922C270.477 91.8851 273.446 90.9552 275.878 89.1528C278.31 87.3504 280.063 84.7807 280.854 81.859L285.217 83.2136C282.968 90.844 275.977 96.0724 267.451 96.0724C257.045 96.0724 248.898 88.2162 248.898 77.7594C248.898 67.3025 256.919 59.4644 267.451 59.4644C275.823 59.4644 282.76 64.3858 285.109 72.1065L280.827 73.4972Z" fill="#0F0F16"/>
<path d="M320.287 73.4972C319.273 70.3151 317.154 67.6011 314.312 65.8461C311.47 64.0912 308.094 63.4114 304.794 63.9297C301.494 64.4481 298.489 66.1304 296.323 68.6721C294.156 71.2138 292.971 74.447 292.983 77.7865C292.931 79.6337 293.255 81.4722 293.936 83.1902C294.617 84.9081 295.641 86.4696 296.944 87.7797C298.248 89.0898 299.805 90.1211 301.519 90.8109C303.234 91.5007 305.071 91.8345 306.919 91.7922C309.944 91.8847 312.912 90.9545 315.343 89.1519C317.773 87.3494 319.525 84.78 320.314 81.859L324.677 83.2136C322.428 90.844 315.437 96.0724 306.919 96.0724C296.505 96.0724 288.367 88.2162 288.367 77.7594C288.367 67.3025 296.379 59.4644 306.919 59.4644C315.283 59.4644 322.229 64.3858 324.577 72.1065L320.287 73.4972Z" fill="#0F0F16"/>
<path d="M241.891 162.244L218.805 190.237H216.375V153.647H220.891V181.587C228.593 172.274 236.291 162.961 243.986 153.647H246.407V190.237H241.891V162.244Z" fill="#0F0F16"/>
<path d="M284.013 167.634C283.01 164.428 280.892 161.688 278.042 159.909C275.192 158.131 271.799 157.432 268.478 157.939C265.157 158.446 262.127 160.126 259.938 162.674C257.749 165.222 256.546 168.47 256.546 171.829C256.546 175.187 257.749 178.435 259.938 180.983C262.127 183.531 265.157 185.211 268.478 185.718C271.799 186.226 275.192 185.526 278.042 183.748C280.892 181.969 283.01 179.229 284.013 176.023L288.376 177.378C286.127 184.999 279.136 190.236 270.619 190.236C260.204 190.236 252.066 182.371 252.066 171.914C252.066 161.458 260.078 153.628 270.619 153.628C278.982 153.628 285.973 158.55 288.277 166.271L284.013 167.634Z" fill="#0F0F16"/>
<path d="M317.816 153.628V157.909H305.027V190.236H300.511V157.909H287.703V153.628H317.816Z" fill="#0F0F16"/>
<path d="M347.384 153.628V157.882H327.703V168.04H343.221V172.249H327.703V186.019H347.384V190.255H323.16V153.628H347.384Z" fill="#0F0F16"/>
<path d="M352.922 190.238V153.648H369.225C371.112 153.56 372.994 153.919 374.717 154.695C376.402 155.526 377.822 156.813 378.814 158.408C379.807 160.004 380.333 161.846 380.333 163.725C380.333 165.604 379.807 167.446 378.814 169.042C377.822 170.638 376.402 171.924 374.717 172.755C373.019 173.53 371.161 173.889 369.297 173.803H357.555V190.21L352.922 190.238ZM368.746 169.622C369.944 169.68 371.142 169.499 372.269 169.089C373.324 168.659 374.228 167.924 374.863 166.978C375.499 166.033 375.839 164.919 375.839 163.779C375.839 162.64 375.499 161.526 374.863 160.58C374.228 159.635 373.324 158.9 372.269 158.47C371.137 158.042 369.927 157.86 368.719 157.937H357.465V169.622H368.746Z" fill="#0F0F16"/>
<path d="M187.293 217.933V206.69H192.306C192.886 206.664 193.464 206.772 193.995 207.006C194.515 207.261 194.954 207.657 195.26 208.149C195.567 208.641 195.73 209.208 195.73 209.788C195.73 210.367 195.567 210.935 195.26 211.427C194.954 211.918 194.515 212.314 193.995 212.569C193.467 212.804 192.892 212.912 192.315 212.885H188.702V217.933H187.293ZM192.152 211.612C192.521 211.63 192.889 211.575 193.236 211.449C193.563 211.32 193.844 211.094 194.04 210.803C194.237 210.511 194.341 210.167 194.338 209.815C194.344 209.463 194.242 209.119 194.044 208.828C193.847 208.537 193.565 208.314 193.236 208.189C192.892 208.054 192.522 207.996 192.152 208.018H188.693V211.63L192.152 211.612Z" fill="#0F0F16"/>
<path d="M197.344 217.933V206.681H204.75V208H198.753V217.933H197.344Z" fill="#0F0F16"/>
<path d="M207.347 206.69L210.706 213.011L214.003 206.69H215.575L211.059 215.278C210.765 215.936 210.372 216.545 209.894 217.084C209.641 217.366 209.332 217.592 208.987 217.748C208.641 217.903 208.267 217.985 207.888 217.987C207.244 217.99 206.615 217.798 206.082 217.436L206.796 216.226C207.115 216.453 207.497 216.576 207.888 216.578C208.71 216.578 209.117 216.045 209.532 215.25L209.966 214.456L205.793 206.735L207.347 206.69Z" fill="#0F0F16"/>
<path d="M228.942 209.327L221.851 217.932H221.102V206.69H222.502V215.269C224.868 212.409 227.231 209.549 229.592 206.69H230.323V217.932H228.923L228.942 209.327Z" fill="#0F0F16"/>
<path d="M233.35 206.681L238.291 212.822L243.222 206.681H243.954V217.933H242.563V209.499L238.282 214.917L234.009 209.499V217.969H232.609V206.681H233.35Z" fill="#0F0F16"/>
<path d="M246.066 216.326H247.692V217.933H246.066V216.326Z" fill="#0F0F16"/>
<path d="M261.125 215.621H255.381L254.477 217.932H252.996L257.603 206.69H258.975L263.564 217.932H262.083L261.125 215.621ZM255.895 214.32H260.61L258.262 208.424L255.895 214.32Z" fill="#0F0F16"/>
<path d="M265.02 216.326H266.645V217.933H265.02V216.326Z" fill="#0F0F16"/>
<path d="M277.789 206.681V217.933H276.389V212.433H270.175V217.933H268.766V206.681H270.175V211.124H276.389V206.681H277.789Z" fill="#0F0F16"/>
<path d="M279.898 216.326H281.524V217.933H279.898V216.326Z" fill="#0F0F16"/>
<path d="M295.574 206.69L290.633 211.449C292.584 213.607 294.544 215.765 296.486 217.932H294.679L289.35 211.918V217.932H287.941V206.69H289.341V211.015L293.722 206.69H295.574Z" fill="#0F0F16"/>
<path d="M302.109 217.934C301 217.919 299.92 217.578 299.004 216.951C298.089 216.325 297.379 215.442 296.963 214.413C296.548 213.385 296.447 212.256 296.671 211.17C296.896 210.084 297.436 209.088 298.225 208.308C299.014 207.528 300.016 206.999 301.105 206.787C302.194 206.574 303.321 206.689 304.345 207.115C305.369 207.542 306.245 208.261 306.861 209.183C307.477 210.106 307.807 211.19 307.809 212.299C307.821 213.048 307.682 213.791 307.399 214.485C307.116 215.178 306.696 215.807 306.163 216.334C305.631 216.86 304.997 217.273 304.3 217.548C303.603 217.823 302.858 217.955 302.109 217.934ZM302.109 208.001C301.256 207.995 300.42 208.243 299.708 208.714C298.995 209.184 298.439 209.856 298.109 210.643C297.779 211.43 297.69 212.297 297.854 213.135C298.018 213.972 298.427 214.742 299.03 215.347C299.632 215.952 300.4 216.364 301.237 216.532C302.074 216.699 302.942 216.614 303.731 216.287C304.52 215.961 305.194 215.407 305.667 214.697C306.141 213.987 306.393 213.152 306.391 212.299C306.409 211.731 306.312 211.165 306.103 210.636C305.895 210.108 305.581 209.627 305.18 209.224C304.779 208.822 304.299 208.505 303.771 208.295C303.243 208.084 302.678 207.984 302.109 208.001Z" fill="#0F0F16"/>
<path d="M318.78 210.98C318.471 209.995 317.82 209.154 316.944 208.608C316.069 208.062 315.027 207.848 314.007 208.004C312.987 208.16 312.056 208.676 311.384 209.459C310.712 210.242 310.343 211.239 310.343 212.271C310.343 213.303 310.712 214.3 311.384 215.083C312.056 215.865 312.987 216.382 314.007 216.538C315.027 216.694 316.069 216.479 316.944 215.934C317.82 215.388 318.471 214.547 318.78 213.562L320.116 213.978C319.708 215.256 318.856 216.346 317.714 217.052C316.573 217.757 315.216 218.032 313.89 217.825C312.564 217.619 311.355 216.945 310.482 215.925C309.609 214.906 309.129 213.608 309.129 212.266C309.129 210.924 309.609 209.627 310.482 208.607C311.355 207.588 312.564 206.914 313.89 206.708C315.216 206.501 316.573 206.775 317.714 207.481C318.856 208.186 319.708 209.277 320.116 210.555L318.78 210.98Z" fill="#0F0F16"/>
<path d="M328.381 217.625C327.844 217.883 327.251 218.001 326.656 217.969H321.77V206.69H323.17V211.485H326.656C327.246 211.457 327.834 211.568 328.372 211.81C328.923 212.065 329.387 212.475 329.708 212.99C330.029 213.505 330.192 214.102 330.178 214.709C330.204 215.319 330.046 215.922 329.726 216.442C329.406 216.962 328.937 217.374 328.381 217.625ZM327.631 212.984C327.271 212.85 326.886 212.795 326.502 212.821H323.17V216.659H326.502C326.887 216.68 327.271 216.622 327.631 216.488C327.978 216.344 328.274 216.101 328.482 215.789C328.691 215.477 328.802 215.111 328.802 214.736C328.802 214.361 328.691 213.994 328.482 213.682C328.274 213.371 327.978 213.128 327.631 212.984ZM333.051 217.969H331.651V206.69H333.051V217.969Z" fill="#0F0F16"/>
<path d="M335.281 217.933V206.681H342.688V208H336.69V217.933H335.281Z" fill="#0F0F16"/>
<path d="M352.254 209.327L345.155 217.932H344.414V206.69H345.805V215.269C348.177 212.409 350.544 209.549 352.904 206.69H353.654V217.932H352.254V209.327Z" fill="#0F0F16"/>
<path d="M364.903 206.681V217.933H363.503V212.433H357.28V217.933H355.871V206.681H357.271V211.124H363.494V206.681H364.903Z" fill="#0F0F16"/>
<path d="M374.345 215.621H368.592L367.688 217.932H366.207L370.804 206.69H372.123L376.711 217.932H375.239L374.345 215.621ZM369.115 214.32H373.821L371.482 208.424L369.115 214.32Z" fill="#0F0F16"/>
<path d="M69.8552 231.595C57.6617 240.409 35.2528 255.977 17.6942 249.385C-13.4488 237.763 5.04916 204.649 9.61945 196.107C26.4645 164.709 97.5479 125.907 91.0267 180.232C90.9002 181.316 89.2925 184.097 88.317 180.638C84.0719 166.253 73.8655 163.12 59.2695 170.344C28.9032 185.397 -3.89272 236.968 23.7548 245.619C53.6424 254.956 171.711 124.886 186.154 116.263C196.288 110.203 190.128 109.842 188.981 109.942C139.999 112.235 106.11 126.422 95.4615 134.549C88.7144 139.705 92.6615 145.466 93.348 145.981C92.797 145.981 83.1958 147.453 81.8229 141.737C77.6139 124.2 122.034 100.496 221.47 105.959C220.837 106.862 216.592 109.571 215.951 110.474C209.276 109.824 199.811 116.913 193.316 125.419C192.133 126.954 162.842 172.204 161.586 174.417C161.379 174.778 160.882 175.365 161.586 175.708C162.11 175.97 162.562 175.663 162.986 175.229C169.333 168.74 175.701 162.265 182.089 155.806C188.005 149.855 194.265 144.193 200.361 138.405C207.407 131.713 214.967 125.555 222.391 119.261C227.982 114.511 234.015 110.185 239.986 105.815C244.791 102.293 269.286 103.205 277.921 103.566C277.226 104.767 272.8 111.991 272.167 113.22C267.462 113.138 254.69 112.38 250.59 114.357C221.09 128.58 180.355 201.516 166.59 223.17C166.03 223.315 162.336 220.1 162.336 220.1C164.007 208.207 193.687 158.063 235.921 113.382C235.015 113.389 234.111 113.45 233.212 113.563C206.729 134.097 183.137 162.985 179.307 166.895C176.932 169.315 162.146 184.296 157.188 189.47C151.576 195.309 146.009 201.182 140.487 207.088C140.162 207.088 135.646 205.282 135.546 205.282C137.441 198.536 139.932 191.972 142.989 185.668C144.488 182.426 163.375 148.699 175.288 134.377C180.572 128.056 175.731 128.58 173.527 130.693C172.208 131.84 86.6099 219.495 69.8552 231.595Z" fill="#0F0F16"/>
<path d="M338.91 22.5199L349.064 34.4984C351.372 37.221 354.879 38.2566 357.744 37.0615L373.102 30.6551L360.384 41.3861C358.011 43.388 357.329 46.9807 358.696 50.278L364.709 64.7846L354.554 52.8061C352.246 50.0835 348.739 49.0478 345.874 50.243L330.517 56.6494L343.234 45.9184C345.607 43.9165 346.289 40.3238 344.922 37.0265L338.91 22.5199Z" fill="#0F0F16"/>
<path d="M89.6369 80.1734C87.9638 89.4726 109.189 92.1812 116.686 76.2911C124.581 59.5524 108.23 47.671 89.8268 49.4767C67.7062 51.5532 38.1517 75.93 39.8429 117.19C42.7006 186.926 115.637 249.276 115.637 249.276H166.372C166.372 249.276 132.25 235.986 105.906 215.121C68.1674 185.228 49.3179 146.135 46.3064 120.115C41.875 82.2499 64.9027 63.2902 85.5492 61.8637C102.072 60.7171 115.637 73.9618 111.956 76.8328C107.344 80.4442 91.2828 71.1449 89.6369 80.1734Z" fill="#EF032E"/>
</svg>
